<?xml version="1.0" encoding="UTF-8"?>
<!DOCTYPE svg PUBLIC "-//W3C//DTD SVG 1.1//EN" "http://www.w3.org/Graphics/SVG/1.1/DTD/svg11.dtd">
<!-- Creator: CorelDRAW X6 -->
<svg xmlns="http://www.w3.org/2000/svg" xml:space="preserve" width="19.3056in" height="5.94444in" version="1.1" style="shape-rendering:geometricPrecision; text-rendering:geometricPrecision; image-rendering:optimizeQuality; fill-rule:evenodd; clip-rule:evenodd"
viewBox="0 0 19306 5944"
 xmlns:xlink="http://www.w3.org/1999/xlink">
 <defs>
  <style type="text/css">
   <![CDATA[
    .fil0 {fill:#FEFEFE;fill-rule:nonzero}
   ]]>
  </style>
 </defs>
 <g id="Layer_x0020_1">
  <metadata id="CorelCorpID_0Corel-Layer"/>
  <path class="fil0" d="M14943 577c0,-120 92,-221 205,-225 113,-4 203,90 203,210 -1,120 -92,221 -205,225 -113,4 -203,-90 -203,-210zm-3089 -75c1,-126 101,-232 225,-236 124,-4 209,95 208,221 -1,126 -87,232 -210,236 -124,4 -223,-95 -223,-221zm-3881 790c129,0 204,119 191,290 -15,201 -161,431 -415,612 -133,-378 -34,-902 225,-902zm-1730 2727c-133,0 -203,-126 -203,-269 0,-385 283,-589 631,-764 -16,841 -211,1034 -428,1034zm9068 -2577c0,-225 -13,-375 -161,-375 -67,0 -100,13 -159,33 52,761 -120,1431 -330,1431 -275,0 -138,-1631 -721,-1631 -537,0 -615,1302 -676,1302 -42,0 -48,-342 -46,-602 23,-125 35,-237 35,-322 0,-121 -49,-331 -324,-226 10,931 -177,1494 -387,1494 -308,0 -311,-844 -311,-1077 0,-227 16,-531 -321,-423 -51,812 -263,1425 -397,1425 -200,0 -160,-1403 -593,-1403 -389,0 -509,1329 -590,1329 -145,0 45,-1496 -516,-1496 -295,0 -412,500 -527,1059 -22,109 -46,112 -50,-10 -3,-101 -4,-211 -3,-313 142,-562 -31,-770 -292,-620 84,1037 -392,1544 -757,1544 -132,0 -236,-56 -313,-145 438,-268 633,-577 633,-878 0,-327 -187,-514 -499,-514 -434,0 -677,447 -677,828 0,205 38,379 101,522 -149,71 -290,133 -421,193 -11,-391 -56,-802 -89,-1181 -231,-64 -299,48 -317,254 -41,470 -215,761 -369,761 -116,0 -186,-141 -195,-291 -43,-753 568,-962 888,-853 66,-166 -6,-285 -295,-285 -350,0 -611,213 -803,485 -128,182 -276,311 -472,467 5,-45 8,-90 8,-134 0,-531 -288,-764 -562,-764 -227,0 -370,137 -453,345 -20,-209 -62,-300 -184,-300 -52,0 -125,15 -203,52 36,117 50,376 50,547 0,638 -183,925 -359,925 -201,0 -233,-757 -250,-1052 -26,-9 -54,-18 -99,-18 -182,0 -206,244 -251,469 -50,249 -193,562 -406,562 -128,0 -208,-124 -219,-346 -21,-451 355,-986 942,-820 77,-180 -44,-317 -288,-317 -429,0 -785,322 -939,702 -157,349 -433,861 -992,861 -395,0 -698,-344 -698,-1068 0,-624 393,-1216 813,-1216 293,0 361,289 336,559 152,122 401,9 401,-296 0,-210 -171,-566 -721,-566 -682,0 -1284,680 -1284,1573 0,865 439,1376 1060,1376 392,0 762,-224 1017,-637 64,361 310,513 495,513 299,0 494,-193 600,-455 67,262 207,456 440,456 164,0 292,-83 389,-217 -38,911 -87,1492 452,1378 -83,-259 -110,-731 -110,-1154 0,-1159 191,-1540 431,-1540 174,0 230,221 230,457 0,126 -12,272 -44,403 -295,185 -530,332 -530,518 0,147 109,161 204,161 226,0 498,-222 649,-641 131,-79 263,-171 389,-295 -4,42 -7,85 -7,129 0,416 182,667 472,667 228,0 398,-161 519,-403 8,139 12,268 14,386 -461,213 -972,430 -972,1032 0,312 225,546 518,546 643,0 790,-679 796,-1467 209,-91 365,-161 545,-250 154,193 363,289 555,289 363,0 635,-192 854,-582 39,297 116,582 274,582 288,0 346,-1504 560,-1504 164,0 29,1627 462,1627 370,0 440,-1432 620,-1432 128,0 138,1309 541,1309 198,0 414,-238 521,-738 51,332 218,738 546,738 191,0 356,-193 482,-451 35,265 110,451 255,451 377,0 364,-1501 663,-1501 233,0 161,1501 715,1501 264,0 388,-225 463,-506 102,415 267,506 402,506 86,0 151,-30 236,-132 -428,-186 -392,-862 -392,-1299zm3953 147c-93,-186 -289,-266 -490,-257 -194,9 -336,133 -444,285 -122,172 -208,368 -308,553 -96,178 -200,353 -338,503 -154,166 -347,290 -563,356 100,72 239,88 359,93 136,5 272,-7 406,-31 243,-44 506,-129 686,-307 -281,4 -507,-185 -527,-470 181,219 454,303 727,225 240,-68 432,-258 510,-494 49,-150 54,-313 -17,-457zm-9 -207c-91,-303 -276,-569 -521,-794 -265,-242 -580,-426 -910,-564 -27,-11 -53,-22 -80,-33l0 0c0,0 0,0 0,0 -406,487 -1813,850 -1813,1871 0,399 252,772 622,922 230,78 478,63 699,-37 213,-97 376,-268 507,-459 138,-202 243,-423 375,-628 122,-191 278,-382 509,-436 210,-49 458,6 612,159z"/>
  <path class="fil0" d="M7496 4101c-17,39 -36,86 -57,141 -22,55 -44,116 -67,180l249 0c-23,-65 -46,-125 -68,-182 -22,-56 -41,-103 -57,-140zm224 611c-10,-30 -21,-59 -32,-89 -11,-29 -22,-59 -32,-90l-320 0c-10,31 -21,61 -31,90 -11,30 -21,59 -31,88l-143 0c28,-81 55,-156 81,-224 26,-69 50,-133 75,-195 24,-61 49,-120 73,-175 24,-55 49,-110 74,-164l132 0c26,54 50,109 74,164 24,55 48,114 73,175 24,61 50,126 75,195 26,69 53,143 81,224l-149 0z"/>
  <path class="fil0" d="M8188 4066c-35,0 -64,1 -86,3l0 258 67 0c66,0 117,-9 153,-28 36,-19 54,-54 54,-106 0,-25 -5,-46 -14,-62 -9,-17 -23,-30 -39,-39 -17,-9 -37,-16 -60,-20 -23,-4 -48,-6 -74,-6zm-10 -119c110,0 195,20 253,60 59,40 88,103 88,188 0,44 -8,83 -24,114 -16,32 -38,58 -68,78 -30,20 -66,35 -109,44 -43,9 -92,14 -148,14l-69 0 0 267 -138 0 0 -747c32,-7 68,-12 107,-15 39,-3 75,-4 108,-4z"/>
  <path class="fil0" d="M8870 4066c-35,0 -64,1 -86,3l0 258 67 0c66,0 117,-9 153,-28 36,-19 54,-54 54,-106 0,-25 -5,-46 -14,-62 -9,-17 -23,-30 -39,-39 -17,-9 -37,-16 -60,-20 -23,-4 -48,-6 -74,-6zm-10 -119c110,0 195,20 253,60 59,40 88,103 88,188 0,44 -8,83 -24,114 -16,32 -38,58 -68,78 -30,20 -66,35 -109,44 -43,9 -92,14 -148,14l-69 0 0 267 -138 0 0 -747c32,-7 68,-12 107,-15 39,-3 75,-4 108,-4z"/>
  <polygon class="fil0" points="9806,4594 9806,4713 9327,4713 9327,3955 9465,3955 9465,4594 "/>
  <polygon class="fil0" points="9911,4713 10049,4713 10049,3955 9911,3955 "/>
  <polygon class="fil0" points="10230,4713 10230,3955 10717,3955 10717,4072 10368,4072 10368,4259 10679,4259 10679,4374 10368,4374 10368,4596 10743,4596 10743,4713 "/>
  <path class="fil0" d="M11009 4599c8,1 19,1 32,2 13,0 31,1 54,1 93,0 162,-24 207,-71 46,-47 68,-113 68,-197 0,-86 -22,-152 -67,-198 -44,-46 -113,-69 -207,-69 -41,0 -70,1 -88,3l0 529zm505 -266c0,66 -10,123 -31,171 -20,49 -49,89 -87,121 -38,32 -83,57 -136,72 -53,16 -111,24 -176,24 -31,0 -65,-1 -104,-4 -39,-3 -75,-8 -110,-16l0 -736c35,-8 72,-13 112,-15 39,-2 74,-3 105,-3 63,0 121,7 174,22 53,15 98,38 135,70 38,32 67,72 87,120 20,49 31,106 31,173z"/>
  <polygon class="fil0" points="11920,4713 12058,4713 12058,3955 11920,3955 "/>
  <path class="fil0" d="M12750 4713c-25,-42 -53,-86 -83,-134 -31,-48 -62,-96 -95,-144 -33,-48 -66,-96 -100,-141 -34,-46 -66,-87 -97,-123l0 543 -136 0 0 -758 113 0c29,31 61,67 94,109 34,42 67,86 101,131 34,45 67,91 98,136 32,46 60,88 85,127l0 -503 137 0 0 758 -117 0z"/>
  <path class="fil0" d="M13560 4713c-25,-42 -53,-86 -83,-134 -31,-48 -62,-96 -95,-144 -33,-48 -66,-96 -100,-141 -34,-46 -66,-87 -97,-123l0 543 -136 0 0 -758 113 0c29,31 61,67 94,109 34,42 67,86 101,131 34,45 67,91 98,136 32,46 60,88 85,127l0 -503 137 0 0 758 -117 0z"/>
  <path class="fil0" d="M13971 4333c0,42 5,79 15,113 10,34 25,63 44,86 19,24 43,42 71,55 28,13 59,20 94,20 34,0 65,-7 93,-20 28,-13 51,-32 70,-55 19,-24 34,-52 44,-86 10,-34 15,-72 15,-113 0,-42 -5,-79 -15,-113 -10,-34 -25,-63 -44,-86 -19,-24 -43,-42 -70,-55 -28,-13 -59,-20 -93,-20 -35,0 -66,7 -94,20 -28,13 -51,32 -71,56 -19,24 -34,53 -44,86 -10,34 -15,71 -15,113zm592 0c0,65 -10,122 -29,172 -19,50 -46,91 -79,124 -33,33 -72,58 -116,75 -44,17 -92,25 -142,25 -50,0 -98,-8 -143,-25 -45,-17 -84,-42 -117,-75 -33,-33 -60,-75 -79,-124 -20,-50 -30,-107 -30,-172 0,-65 10,-122 30,-171 20,-49 46,-91 80,-124 34,-34 73,-59 118,-75 44,-17 92,-25 141,-25 50,0 97,8 141,25 44,17 83,42 117,75 33,34 60,75 79,124 20,49 29,106 29,171z"/>
  <path class="fil0" d="M14908 4713c-55,-118 -108,-242 -158,-371 -51,-129 -98,-258 -142,-387l152 0c18,51 35,103 54,156 18,53 37,106 55,157 18,51 37,101 55,149 18,48 36,92 54,132 17,-40 34,-84 53,-132 18,-48 37,-98 55,-149 19,-52 37,-104 55,-157 18,-53 36,-105 53,-156l148 0c-45,129 -92,258 -143,387 -51,129 -103,253 -158,371l-132 0z"/>
  <path class="fil0" d="M15659 4101c-17,39 -36,86 -57,141 -22,55 -44,116 -67,180l249 0c-23,-65 -46,-125 -68,-182 -22,-56 -41,-103 -57,-140zm224 611c-10,-30 -21,-59 -32,-89 -11,-29 -22,-59 -32,-90l-320 0c-10,31 -21,61 -31,90 -11,30 -21,59 -31,88l-143 0c28,-81 55,-156 81,-224 25,-69 50,-133 75,-195 24,-61 49,-120 73,-175 24,-55 49,-110 74,-164l132 0c26,54 50,109 74,164 24,55 48,114 73,175 24,61 50,126 75,195 26,69 53,143 82,224l-149 0z"/>
  <polygon class="fil0" points="16593,3955 16593,4074 16360,4074 16360,4713 16221,4713 16221,4074 15988,4074 15988,3955 "/>
  <polygon class="fil0" points="16698,4713 16836,4713 16836,3955 16698,3955 "/>
  <path class="fil0" d="M17130 4333c0,42 5,79 15,113 10,34 25,63 44,86 19,24 43,42 71,55 28,13 59,20 94,20 34,0 65,-7 93,-20 28,-13 51,-32 71,-55 19,-24 34,-52 44,-86 10,-34 15,-72 15,-113 0,-42 -5,-79 -15,-113 -10,-34 -25,-63 -44,-86 -19,-24 -43,-42 -71,-55 -28,-13 -59,-20 -93,-20 -35,0 -66,7 -94,20 -28,13 -51,32 -71,56 -19,24 -34,53 -44,86 -10,34 -15,71 -15,113zm592 0c0,65 -10,122 -29,172 -19,50 -46,91 -79,124 -33,33 -72,58 -117,75 -44,17 -92,25 -142,25 -50,0 -98,-8 -143,-25 -45,-17 -84,-42 -117,-75 -33,-33 -60,-75 -79,-124 -20,-50 -30,-107 -30,-172 0,-65 10,-122 30,-171 20,-49 47,-91 80,-124 34,-34 73,-59 118,-75 45,-17 92,-25 141,-25 50,0 97,8 141,25 44,17 83,42 117,75 33,34 60,75 79,124 20,49 30,106 30,171z"/>
  <path class="fil0" d="M18383 4713c-25,-42 -53,-86 -83,-134 -31,-48 -62,-96 -95,-144 -33,-48 -66,-96 -100,-141 -34,-46 -66,-87 -97,-123l0 543 -136 0 0 -758 113 0c29,31 61,67 94,109 33,42 67,86 101,131 34,45 67,91 98,136 32,46 60,88 85,127l0 -503 137 0 0 758 -117 0z"/>
  <polygon class="fil0" points="12915,5928 12915,5170 13402,5170 13402,5287 13053,5287 13053,5474 13364,5474 13364,5589 13053,5589 13053,5811 13428,5811 13428,5928 "/>
  <path class="fil0" d="M14006 5928c-21,-40 -48,-84 -80,-131 -32,-48 -66,-94 -101,-138 -15,17 -30,38 -47,62 -17,24 -34,49 -51,74 -17,25 -33,49 -47,73 -14,23 -26,44 -35,61l-158 0c34,-61 72,-123 116,-187 44,-64 92,-131 143,-201l-248 -371 164 0 166 249 167 -249 158 0 -246 367c57,74 107,144 151,210 44,66 80,126 110,181l-161 0z"/>
  <path class="fil0" d="M14589 5944c-57,0 -108,-9 -153,-26 -45,-18 -83,-43 -115,-77 -31,-34 -55,-75 -72,-124 -17,-49 -25,-105 -25,-168 0,-63 10,-120 29,-168 19,-49 46,-90 79,-124 33,-34 73,-60 118,-77 45,-18 94,-26 146,-26 31,0 60,2 85,7 26,5 48,10 67,16 19,6 35,12 47,19 12,7 21,11 26,14l-41 113c-18,-11 -42,-21 -75,-31 -33,-10 -68,-15 -106,-15 -33,0 -63,6 -92,17 -28,11 -53,28 -74,51 -21,23 -37,51 -49,85 -12,34 -18,74 -18,119 0,40 4,77 14,110 9,34 23,63 42,87 19,24 43,43 72,57 29,13 64,20 105,20 49,0 89,-5 119,-15 31,-10 54,-19 71,-28l37 113c-9,6 -21,12 -36,18 -15,6 -33,11 -53,17 -20,5 -43,10 -69,13 -26,3 -53,5 -82,5z"/>
  <polygon class="fil0" points="15417,5170 15555,5170 15555,5928 15417,5928 15417,5592 15088,5592 15088,5928 14950,5928 14950,5170 15088,5170 15088,5473 15417,5473 "/>
  <path class="fil0" d="M16017 5317c-17,39 -36,86 -57,141 -22,55 -44,116 -67,180l249 0c-23,-65 -46,-125 -68,-182 -22,-56 -41,-103 -57,-140zm224 611c-10,-30 -21,-59 -32,-89 -11,-29 -22,-59 -32,-90l-320 0c-10,31 -21,61 -31,90 -11,30 -21,59 -31,88l-143 0c28,-81 55,-156 81,-224 26,-69 50,-133 75,-195 24,-61 49,-120 73,-175 24,-55 49,-110 74,-164l132 0c26,54 50,109 74,164 24,55 48,114 73,175 24,61 50,126 75,195 26,69 53,143 82,224l-149 0z"/>
  <path class="fil0" d="M16995 5928c-25,-42 -53,-86 -83,-134 -31,-48 -62,-96 -95,-144 -33,-48 -66,-96 -100,-141 -34,-46 -66,-87 -97,-123l0 543 -136 0 0 -758 113 0c29,31 61,67 94,109 34,42 67,86 101,131 34,45 67,91 98,136 32,46 60,88 85,127l0 -503 137 0 0 758 -117 0z"/>
  <path class="fil0" d="M17648 5274c-78,0 -138,24 -179,73 -41,49 -62,116 -62,202 0,41 5,78 15,112 10,34 24,63 44,87 19,24 43,43 72,56 29,13 63,20 101,20 24,0 45,-1 62,-3 18,-2 31,-4 42,-7l0 -272 138 0 0 364c-19,7 -51,15 -96,24 -45,9 -97,13 -156,13 -55,0 -105,-9 -150,-26 -45,-17 -84,-43 -115,-77 -32,-34 -56,-75 -74,-124 -18,-49 -26,-105 -26,-168 0,-63 10,-120 29,-168 19,-49 46,-90 79,-124 34,-34 73,-60 118,-77 45,-18 93,-26 144,-26 35,0 66,2 94,7 27,5 51,10 71,16 20,6 36,12 49,19 13,7 22,11 27,14l-42 113c-22,-13 -49,-24 -82,-33 -32,-9 -67,-14 -102,-14z"/>
  <polygon class="fil0" points="18041,5928 18041,5170 18528,5170 18528,5287 18179,5287 18179,5474 18489,5474 18489,5589 18179,5589 18179,5811 18554,5811 18554,5928 "/>
 </g>
</svg>
